PathFileType	4	(X/Y/Z)	Patient4_TMGait_0pt5_01_left_07.trc.trc
DataRate	CameraRate	NumFrames	NumMarkers	Units	OrigDataRate	OrigDataStartFrame	OrigNumFrames
74.468085106383	74.468085106383	7	33	mm	74.468085106383	89	       141
Frame#	Time	L.ASIS			Sacral			L.Shoulder			Chest			R.Shoulder			Neck			R.ASIS			R.Thigh.Superior			R.Thigh.Lateral			R.Thigh.Inferior			R.Patella			L.Thigh.Superior			L.Thigh.Lateral			L.Thigh.Inferior			L.Patella			L.Shank.Superior			L.Shank.Lateral			L.Shank.Inferior			R.Shank.Superior			R.Shank.Lateral			R.Shank.Inferior			R.Heel			R.Midfoot.Superior			R.Midfoot.Lateral			R.Toe			L.Heel			L.Midfoot.Lateral			L.Midfoot.Superior			L.Toe			L.Elbow			L.Wrist			R.Elbow			R.Wrist			
		X1	Y1	Z1	X2	Y2	Z2	X3	Y3	Z3	X4	Y4	Z4	X5	Y5	Z5	X6	Y6	Z6	X7	Y7	Z7	X8	Y8	Z8	X9	Y9	Z9	X10	Y10	Z10	X11	Y11	Z11	X12	Y12	Z12	X13	Y13	Z13	X14	Y14	Z14	X15	Y15	Z15	X16	Y16	Z16	X17	Y17	Z17	X18	Y18	Z18	X19	Y19	Z19	X20	Y20	Z20	X21	Y21	Z21	X22	Y22	Z22	X23	Y23	Z23	X24	Y24	Z24	X25	Y25	Z25	X26	Y26	Z26	X27	Y27	Z27	X28	Y28	Z28	X29	Y29	Z29	X30	Y30	Z30	X31	Y31	Z31	X32	Y32	Z32	X33	Y33	Z33	

89	10.581714285714	739.234093768389	959.569783013484	342.817109093358	528.913799984413	1002.243374677169	504.215665090500	705.806544623935	1441.843971713663	344.487219535862	805.607800677471	1358.931069479078	501.348299965422	721.694547833583	1424.909484395204	679.287463100917	710.966310365174	1493.006683703222	497.466167862300	760.259164808922	938.556365513168	616.312630852653	818.331828434724	747.291492182681	578.629121640521	751.331843174258	633.015663818145	639.949633704256	827.575697388026	587.626981256432	553.612521671085	837.085549128975	497.810322204589	557.530390107788	781.030922728980	739.786816226905	369.206982533683	692.574364118677	625.850403811744	306.788405509987	777.108219649818	540.871978014336	365.597614513719	768.621051874197	454.566235795218	364.004032813864	700.308643862126	396.891641946286	361.082981690119	561.377463704860	349.936637174698	312.875134810073	547.371915183871	224.969642452622	375.369283306425	812.521385671543	408.137517464672	566.704088202031	751.293365037082	301.815922469945	632.825113892077	791.156532766791	208.783117693655	566.470513381410	659.451131793516	42.929413567141	544.830840415623	832.032335180322	98.080932572959	570.521219734768	747.106251742678	36.682913176267	614.808017897287	954.115610003873	44.125896000523	590.980881105672	354.527310860115	155.893738467283	408.191997015044	419.559041548421	107.211813784631	336.961318028326	521.368697429005	123.080419925277	363.057083781228	605.872150278156	31.430485805043	354.036608317035	634.713910864602	1110.154200273339	195.092283598193	784.897594722256	897.773635462351	229.470306700546	700.022459968445	1077.604458340257	791.521105515002	876.581554536088	887.379705159124	798.898347520917	
90	10.595142857143	738.570989505793	960.138354034043	345.208655056056	529.329743339956	1002.901034758480	507.886412066672	704.645608996633	1442.352638762077	346.539287965425	805.967228290212	1359.690589188389	502.570459102492	723.617150163258	1425.751230766335	681.143025211071	711.055793357350	1493.676895309972	499.397395624167	761.157748338495	939.120152383276	618.375313394294	817.477608225911	746.451378223917	582.356305984583	748.410359447770	632.923726580199	642.719623484056	824.861298910545	586.901697431371	556.944403581860	833.186032004001	497.152055655532	560.417567233919	784.811923307574	742.768455851501	371.000776565786	700.437975126114	627.213230761985	307.183280143253	787.422614157076	543.788504665032	365.415195882892	780.070923813713	456.438956888848	362.914153256190	710.306656275431	398.773144973352	360.364249199336	569.651781339472	356.144878340735	312.852937533065	552.572371838549	231.398223848911	374.970946875811	808.073043550789	407.650679848395	568.982169198274	745.797749963181	301.465759942922	634.214465864689	785.370368991517	208.485342008304	567.679149432222	652.627588168372	43.040243070031	544.983224281800	825.417663315435	97.936307862279	570.988224428490	740.230834775259	36.583821165576	614.971397194523	947.348723410049	43.509105104652	591.263228771603	357.762755098305	170.771353740117	408.648826332315	420.032545532191	118.676001990771	337.108337013379	522.957789591225	129.241191927559	362.645615374122	601.951694855372	31.078731211203	353.272124845069	632.259549603061	1110.380769064368	198.322211629157	780.904785395951	896.395988293241	230.016805432149	706.311276896218	1079.003040837761	795.440255471519	889.364742937789	895.248229152563	800.189524971423	
91	10.608571428571	737.737131773329	960.655357788123	347.497643210018	529.584214305407	1003.534959119187	511.413430042478	703.365684046054	1442.790624497819	348.501335895419	806.225960968477	1360.362794949045	503.669488232884	725.490333162055	1426.518774681771	682.864673932637	711.099280043631	1494.307070897606	501.233362582316	761.788844466806	939.635163430450	620.357225056746	816.327012121640	745.612966039812	586.073183935793	745.186655176697	632.849662823364	645.422680714434	821.881444980997	586.202331848857	560.254191137033	829.020558293232	496.542193730272	563.342363666809	788.322584320230	745.944704575450	372.620487685027	707.937927115338	628.954093790697	307.388058496689	797.268809914017	547.189743326818	365.035529092172	791.213010213265	458.898274546964	361.750441364411	720.273797389388	401.075780084815	359.555316806651	578.144550197109	362.253049805674	312.827341232955	558.441983875989	237.774476076266	374.715650555703	803.411534389894	407.208300891985	571.267556276242	740.069987168697	301.135824350649	635.576190237236	779.478336160811	208.210847334430	568.915077793319	645.726210997702	43.161604151579	545.150963988445	818.765576132036	97.756514080775	571.435993184518	733.287834997611	36.476641946251	615.123418847055	940.519132331994	42.829822726173	591.520618042848	362.219633638107	184.499482875514	409.562672334709	421.822843979707	129.747081784314	337.458480512642	525.633140790912	135.632359142858	362.277165573369	599.709105567131	31.182665547148	352.002229444164	629.458449117106	1110.555579266851	201.499143026248	776.457449052409	894.954650178942	230.268167887533	712.655259883468	1080.320788725389	799.006234137762	901.803434721498	903.095545288188	800.954148679968	
92	10.622000000000	736.721164509737	961.177187838692	349.648102131639	529.673260393996	1004.181476359470	514.774891834977	701.999997452639	1443.218416488997	350.394025949057	806.386861131511	1360.979529689046	504.668118393539	727.307247349785	1427.233364624131	684.480912814152	711.122040018537	1494.929412016223	502.999212634447	762.175440518410	940.139585982403	622.231350014800	814.874107777595	744.831974354701	589.604704554329	741.746230272045	632.836221756202	647.981622351257	818.637279990800	585.561632678794	563.394544236037	824.616572558313	496.008139087532	566.177954487541	791.482460380404	749.325557577283	374.010525767149	714.884836102489	631.086706129941	307.413726228328	806.484987360127	551.067833226717	364.402053092354	801.890733742375	461.945989351042	360.432512658241	730.083495575004	403.788351350620	358.598427102914	586.714621461583	368.069684893642	312.796395075472	565.035107303546	243.817902422565	374.541333087185	798.563019737689	406.843851745918	573.475729827280	734.167808420852	300.872488609012	636.874346698953	773.509126943800	207.993890822445	570.138151810177	638.797817841379	43.304139549641	545.342343363423	812.110684115645	97.579468535402	571.864317343405	726.333037056669	36.378351251159	615.267345791613	933.669427244614	42.152686718084	591.752777429980	367.955794119557	196.377540918880	410.922401887632	425.118135990362	139.822851887911	337.988031442776	529.616206332874	141.898881956899	361.887897774564	599.632920084826	31.790119420576	350.166339864286	626.339526192786	1110.739645551849	204.666575527293	771.523358654325	893.472746442794	230.236058219357	719.060430971776	1081.551928651092	802.174680066777	913.868189360525	910.856358434825	801.186355511338	
93	10.635428571429	735.514374322377	961.759267397267	351.629055269220	529.591573159108	1004.877462752643	517.957596664219	700.578713169434	1443.694657831819	352.239784581975	806.454169144957	1361.573363171420	505.589462531191	729.063915668858	1427.915100753033	686.022475772646	711.141654255904	1495.572903152769	504.721009663293	762.346019705804	940.664803770756	623.969113298836	813.117448578135	744.154227405820	592.794350339036	738.163624978080	632.914840087669	650.333147055375	815.135532985286	585.004834514161	566.245643553629	820.001968651379	495.569487288546	568.818539045581	794.229680760486	752.909594608258	375.126543384611	721.130341198745	633.595423559213	307.273820079709	814.949087111551	555.386269696370	363.469722275836	811.972155336608	465.557942570086	358.893374555600	739.639040128187	406.872906826876	357.442887342060	595.258916626776	373.381768828537	312.743107332718	572.431044635212	249.233749757691	374.367290680553	793.551411216423	406.582236983932	575.539132272369	728.138951886126	300.713528097807	638.082444672273	767.483077355945	207.862678868047	571.316960458309	631.882381941400	43.480045381310	545.561831488745	805.478756234809	97.435833792641	572.276354045012	719.409357207512	36.302980536274	615.406406746743	926.832144486559	41.528908420650	591.961860129321	375.036416029379	205.763045322551	412.654538976109	430.105415248059	148.310472545657	338.636028729484	535.134801787931	147.649402190100	361.403510524361	602.181124409993	32.876074572004	347.736571562552	622.936390208292	1111.000091642651	207.854414377836	766.095150217967	891.996764744486	229.940628623148	725.523050542889	1082.694342831353	804.914883038324	925.533338397467	918.474734918712	800.885605329728	
94	10.648857142857	734.113357851269	962.446201901827	353.415854894081	529.332706321481	1005.652694854435	520.954235585832	699.125880728938	1444.266963561381	354.060639262344	806.432894079153	1362.170284024580	506.454540740150	730.758462467746	1428.575705689452	687.518232845092	711.165823014495	1496.257139442664	506.424197334224	762.330279278723	941.229907941575	625.542552214908	811.065082293811	743.611620288529	595.517533401830	734.505206306192	633.103016889524	652.432673484631	811.396638231524	584.547945758235	568.724021490005	815.212400341012	495.235478320029	571.189615067483	796.523357727511	756.677709887756	375.939154239786	726.574677525800	636.432879919482	306.984903298340	822.577468231573	560.076692506380	362.216438100578	821.350034942255	469.681412797087	357.094596918933	748.870441905044	410.264490226691	356.056393585951	603.715183565067	377.968479370690	312.637539427914	580.719671065841	253.739328678508	374.103545662002	788.404610533372	406.436108517393	577.412515018005	722.025018675355	300.684025167999	639.186186179582	761.415550024462	207.835145414804	572.430651419981	625.006252525302	43.701676017732	545.810352537512	798.885623233511	97.345938275901	572.676950430206	712.543998035276	36.260455800043	615.543560534742	920.028114662638	40.991078373151	592.150671009746	383.531673005530	212.129132634324	414.625906422928	436.955339005012	154.683384891180	339.306345812962	542.397409319276	152.497664078570	360.744925785374	607.731922008231	34.340581137914	344.717987786888	619.284316711298	1111.400739202278	211.072383143878	760.195640362361	890.591311246971	229.408297522670	732.028548209567	1083.744746435835	807.211733286420	936.776995053629	925.901720620461	800.058345742278	
95	10.662285714286	732.522283508998	963.264217857567	354.990958173813	528.890572409836	1006.523396450770	523.760351964281	697.657845560244	1444.965580398374	355.876058857605	806.328015352720	1362.784448656032	507.280420862010	732.389566941861	1429.213561412993	688.991944062465	711.192022488297	1496.988435019388	508.132063242799	762.155822841644	941.839587405615	626.927052118285	808.738411595553	743.220340821180	597.690795776691	730.832074107935	633.403503296493	654.256556220920	807.459900383432	584.197046095354	570.786160875587	810.296563100292	495.004009324687	573.252285932868	798.343359507590	760.588849301078	376.437077649186	731.167951627729	639.521713068302	306.566968367895	829.319499289592	565.038882609264	360.651819073222	829.939663563741	474.234936074991	355.035476650922	757.727819282995	413.874752508558	354.432129461556	612.058430032932	381.619252049115	312.441383331928	589.984527671279	257.091547022732	373.660671175321	783.159264163060	406.404248928050	579.074341820387	715.865849327165	300.794439184141	640.183715781341	755.320784469291	207.916828682796	573.468881946232	618.182578225551	43.980112976390	546.085820975292	792.338082265381	97.319234367530	573.071407728173	705.748897478116	36.256250378336	615.681350909482	913.267129031146	40.552499247929	592.321651801736	393.512182216832	215.109727536225	416.656301544676	445.806822950730	158.532479166398	339.875322469294	551.568394017129	156.105632788500	359.833788699545	616.541862355302	36.025123213754	341.142768267206	615.418179182708	1111.994253295597	214.306833748988	753.879377905027	889.331287367373	228.669720424377	738.552003946031	1084.695018989631	809.065820944235	947.580614065830	933.092558269638	798.719701721770	
